<?xml version="1.0" encoding="utf-8"?>
<!-- Generator: Adobe Illustrator 23.0.0, SVG Export Plug-In . SVG Version: 6.00 Build 0)  -->
<svg version="1.1" id="Capa_1" xmlns="http://www.w3.org/2000/svg" xmlns:xlink="http://www.w3.org/1999/xlink" x="0px" y="0px"
	 viewBox="0 0 490.7 490.7" style="enable-background:new 0 0 490.7 490.7;" xml:space="preserve">
<style type="text/css">
	.st0{fill:#DDDDDD;}
</style>
<g>
	<g>
		<g>
			<path class="st0" d="M448,128h-67.6l-39-42.7H192v64h-64v64H64v213.3c0,23.5,19.2,42.7,42.7,42.7H448c23.5,0,42.7-19.2,42.7-42.7
				v-256C490.7,147.2,471.5,128,448,128z M277.3,405.3c-58.9,0-106.7-47.8-106.7-106.7S218.5,192,277.3,192S384,239.8,384,298.7
				S336.2,405.3,277.3,405.3z"/>
			<polygon class="st0" points="64,192 106.7,192 106.7,128 170.7,128 170.7,85.3 106.7,85.3 106.7,21.3 64,21.3 64,85.3 0,85.3 
				0,128 64,128 			"/>
			<path class="st0" d="M277.3,230.4c-37.8,0-68.3,30.5-68.3,68.3l0,0c0,37.8,30.5,68.3,68.3,68.3s68.3-30.5,68.3-68.3
				S315.1,230.4,277.3,230.4z"/>
		</g>
	</g>
</g>
</svg>
