<svg id="Layer_1" data-name="Layer 1" xmlns="http://www.w3.org/2000/svg" viewBox="0 0 122.4 38.2"><defs><style>.cls-1{fill:#fff;}</style></defs><title>logo</title><path class="cls-1" d="M64.5,9.6A2.49,2.49,0,1,1,62,7.11,2.51,2.51,0,0,1,64.5,9.6Zm-10.25,5v.61a4.75,4.75,0,0,0-3.7-1.53,7.32,7.32,0,0,0-7.42,7.57,7.32,7.32,0,0,0,7.42,7.57,4.62,4.62,0,0,0,3.7-1.57v.65a.53.53,0,0,0,.54.54h3.1V14.07h-3.1A.55.55,0,0,0,54.25,14.61Zm0,9.21a3.8,3.8,0,0,1-3.09,1.57,4,4,0,0,1-4.32-4.13,4,4,0,0,1,4.32-4.13,3.89,3.89,0,0,1,3.09,1.57Zm5.93-9.75h3.67V28.45H60.18ZM115,13.69a4.76,4.76,0,0,0-3.71,1.53V7.15h-3.67v21.3h3.09a.55.55,0,0,0,.54-.54v-.65h0A4.72,4.72,0,0,0,115,28.83a7.34,7.34,0,0,0,7.42-7.57A7.33,7.33,0,0,0,115,13.69Zm-.62,11.66a3.71,3.71,0,0,1-3.09-1.57V18.66a4.14,4.14,0,0,1,3.09-1.57,4,4,0,0,1,4.32,4.13A4,4,0,0,1,114.4,25.35Zm-8.68-5.43v8.57h-3.67V20.34c0-2.37-.76-3.32-2.83-3.32a4.1,4.1,0,0,0-3,1.41v10H92.57V14.07h2.91a.55.55,0,0,1,.53.54v.61a5.27,5.27,0,0,1,3.9-1.53,6,6,0,0,1,4,1.38C105.23,16.14,105.72,17.51,105.72,19.92ZM83.66,13.69A4.79,4.79,0,0,0,80,15.22V7.15H76.28v21.3h3.1a.55.55,0,0,0,.53-.54v-.65h0a4.74,4.74,0,0,0,3.71,1.57A7.34,7.34,0,0,0,91,21.26,7.29,7.29,0,0,0,83.66,13.69Zm-.61,11.66A3.72,3.72,0,0,1,80,23.78V18.66a4.17,4.17,0,0,1,3.1-1.57,4,4,0,0,1,4.32,4.13A4,4,0,0,1,83.05,25.35ZM73.11,13.69a5.85,5.85,0,0,1,1.68.19v3.4s-3.06-1-5,1.15V28.49H66.15V14.07h3.09a.55.55,0,0,1,.54.54v.61A5,5,0,0,1,73.11,13.69ZM35,27.15c-.19-.46-.38-1-.57-1.38-.31-.69-.61-1.34-.88-1.95l0,0C30.85,18.05,28,12.24,25,6.5l-.11-.23c-.31-.57-.62-1.18-.92-1.8a11.29,11.29,0,0,0-1.38-2.1A6.16,6.16,0,0,0,17.78,0a6.42,6.42,0,0,0-4.9,2.29A14.08,14.08,0,0,0,11.5,4.4c-.3.61-.61,1.22-.91,1.79l-.12.23C7.53,12.16,4.66,18,2,23.71l0,.07c-.26.62-.57,1.27-.88,1.95q-.29.63-.57,1.38a8.57,8.57,0,0,0-.46,4.13,8.12,8.12,0,0,0,5,6.35,7.9,7.9,0,0,0,3.1.61,8.09,8.09,0,0,0,1-.08A10,10,0,0,0,13,36.82a19.36,19.36,0,0,0,4.74-4,20.13,20.13,0,0,0,4.74,4,10,10,0,0,0,3.82,1.3,8.42,8.42,0,0,0,1,.08,7.76,7.76,0,0,0,3.1-.61,8.12,8.12,0,0,0,5-6.35A7.24,7.24,0,0,0,35,27.15Zm-17.24,2A18.68,18.68,0,0,1,13.88,22a6.13,6.13,0,0,1-.12-2.34,3.82,3.82,0,0,1,.61-1.6,4.05,4.05,0,0,1,3.37-1.69,3.92,3.92,0,0,1,3.36,1.69,3.57,3.57,0,0,1,.61,1.6A6.09,6.09,0,0,1,21.6,22,19.57,19.57,0,0,1,17.74,29.14ZM33,30.93a5.67,5.67,0,0,1-3.48,4.48,5.73,5.73,0,0,1-2.9.38,7.52,7.52,0,0,1-2.91-1,18.16,18.16,0,0,1-4.36-3.71A21.49,21.49,0,0,0,24,22.64a9.4,9.4,0,0,0,.19-3.25,6.19,6.19,0,0,0-1-2.6,6.45,6.45,0,0,0-5.39-2.72,6.51,6.51,0,0,0-5.39,2.72,6.2,6.2,0,0,0-1,2.6,8.1,8.1,0,0,0,.19,3.25,22.42,22.42,0,0,0,4.63,8.49,17.47,17.47,0,0,1-4.36,3.71,7.64,7.64,0,0,1-2.9,1A6.23,6.23,0,0,1,6,35.45,5.71,5.71,0,0,1,2.48,31a6.41,6.41,0,0,1,.34-3c.12-.38.31-.76.5-1.22.27-.62.58-1.27.88-1.92l0-.07c2.64-5.7,5.47-11.51,8.41-17.17l.12-.23c.3-.57.61-1.19.91-1.76a8.73,8.73,0,0,1,1.07-1.68,4,4,0,0,1,6.12,0,8.28,8.28,0,0,1,1.07,1.68c.31.57.62,1.19.92,1.76l.12.23c2.9,5.7,5.73,11.51,8.37,17.21v0c.31.62.57,1.3.88,1.92.19.46.38.84.5,1.22A6.42,6.42,0,0,1,33,30.93Z" transform="translate(0.01)"/></svg>